<svg clip-rule="evenodd" fill-rule="evenodd" stroke-linejoin="round" stroke-miterlimit="2" viewBox="0 0 96 96" xmlns="http://www.w3.org/2000/svg"><path d="m0 0h96v96h-96z" fill="none"/><path d="m38.5 78h-9.5c-1.193 0-2.338-.474-3.182-1.318s-1.318-1.989-1.318-3.182v-68c0-.828.672-1.5 1.5-1.5s1.5.672 1.5 1.5v25.5h11v-1.5c0-2.485 2.015-4.5 4.5-4.5h19c2.485 0 4.5 2.015 4.5 4.5v6c0 2.485-2.015 4.5-4.5 4.5h-19c-2.485 0-4.5-2.015-4.5-4.5v-1.5h-11v19h11v-1.5c0-2.485 2.015-4.5 4.5-4.5h19c2.485 0 4.5 2.015 4.5 4.5v6c0 2.485-2.015 4.5-4.5 4.5h-19c-2.485 0-4.5-2.015-4.5-4.5v-1.5h-11v17.5c0 .398.158.779.439 1.061.282.281.663.439 1.061.439h9.5v-1.5c0-2.485 2.015-4.5 4.5-4.5h19c2.485 0 4.5 2.015 4.5 4.5v6c0 2.485-2.015 4.5-4.5 4.5h-19c-2.485 0-4.5-2.015-4.5-4.5zm4.5-50c-.828 0-1.5.672-1.5 1.5v6c0 .828.672 1.5 1.5 1.5h19c.828 0 1.5-.672 1.5-1.5v-6c0-.828-.672-1.5-1.5-1.5zm0 44c-.828 0-1.5.672-1.5 1.5v6c0 .828.672 1.5 1.5 1.5h19c.828 0 1.5-.672 1.5-1.5v-6c0-.828-.672-1.5-1.5-1.5zm0-22c-.828 0-1.5.672-1.5 1.5v6c0 .828.672 1.5 1.5 1.5h19c.828 0 1.5-.672 1.5-1.5v-6c0-.828-.672-1.5-1.5-1.5z" fill="#ffffff"/></svg>